#!OML:ASF F:\VICON\USERDATA\INSTALL\rory3\rory3.ASF
:FULLY-SPECIFIED
:DEGREES
947
root 6.51241 18.661 -0.341908 -121.113 -87.3916 122.284
lowerback 5.74717 5.00351 -6.27051
upperback 3.40887 6.22052 -1.89623
thorax -0.133505 2.99144 1.14989
lowerneck 0.798871 -21.8319 -13.3823
upperneck 8.42453 -32.0998 19.2542
head 7.77371 -15.563 4.58816
rclavicle -2.85256e-014 -1.35174e-014
rhumerus 61.0677 68.5993 -49.3381
rradius 50.1681
rwrist 19.0504
rhand -18.4718 6.01169
rfingers 7.12502
rthumb 7.81497 -23.8239
lclavicle -2.85256e-014 -1.35174e-014
lhumerus -7.43318 20.3106 37.3247
lradius 83.1232
lwrist -11.21
lhand -38.7255 22.6924
lfingers 7.12502
lthumb -11.7389 52.3435
rfemur -14.0785 16.6173 8.44338
rtibia 28.2125
rfoot -16.4098 -24.0879
rtoes -1.27127
lfemur -5.86123 -6.90839 -18.9241
ltibia 23.3483
lfoot -14.8624 14.1495
ltoes -15.4525
948
root 6.5137 18.6621 -0.351181 -114.439 -87.6843 115.704
lowerback 5.77348 4.95411 -6.28079
upperback 3.45273 6.15521 -1.8245
thorax -0.107166 2.957 1.23366
lowerneck 0.569765 -21.8978 -12.9735
upperneck 8.40642 -32.0982 18.9463
head 7.68118 -15.5501 4.44982
rclavicle -4.79071e-014 2.66371e-014
rhumerus 58.1989 70.0014 -50.8228
rradius 49.5184
rwrist 19.8078
rhand -17.4895 6.0105
rfingers 7.12502
rthumb 8.763 -23.7876
lclavicle -4.79071e-014 2.66371e-014
lhumerus -8.12047 19.5989 37.3503
lradius 83.4476
lwrist -11.2126
lhand -39.07 22.3734
lfingers 7.12502
lthumb -12.0711 52.0052
rfemur -14.0488 16.5482 8.58748
rtibia 28.2029
rfoot -16.4425 -24.2911
rtoes -1.17268
lfemur -6.14543 -6.98425 -18.7281
ltibia 23.5337
lfoot -14.7395 14.006
ltoes -15.863
949
root 6.51456 18.6636 -0.36055 -108.053 -87.9562 109.332
lowerback 5.91533 4.87586 -6.27213
upperback 3.47331 6.04172 -1.73061
thorax -0.165954 2.90117 1.32217
lowerneck 0.609526 -21.7986 -12.8809
upperneck 8.24396 -31.9259 18.9689
head 7.58381 -15.477 4.4956
rclavicle 7.25564e-015 -7.95139e-015
rhumerus 55.6731 71.4885 -51.4595
rradius 49.7526
rwrist 20.7348
rhand -16.4996 6.31313
rfingers 7.12502
rthumb 9.71818 -23.4427
lclavicle 7.25564e-015 -7.95139e-015
lhumerus -9.21453 18.8672 37.2497
lradius 83.9334
lwrist -11.0679
lhand -39.3969 22.2162
lfingers 7.12502
lthumb -12.3864 51.8292
rfemur -13.9446 16.4927 8.7879
rtibia 28.1849
rfoot -16.6809 -24.326
rtoes -0.61361
lfemur -6.31204 -6.95623 -18.4973
ltibia 23.6902
lfoot -14.6164 13.8454
ltoes -16.7015
950
root 6.51484 18.6653 -0.369918 -101.095 -88.1399 102.398
lowerback 6.04885 4.82713 -6.23565
upperback 3.48682 5.96817 -1.69071
thorax -0.221508 2.86568 1.33804
lowerneck 0.766914 -21.628 -13.109
upperneck 8.10795 -31.7266 19.2701
head 7.57457 -15.3941 4.65733
rclavicle -6.62947e-014 1.90833e-014
rhumerus 53.436 72.8542 -52.1344
rradius 49.3684
rwrist 21.7174
rhand -16.1072 6.91793
rfingers 7.12502
rthumb 10.0967 -22.8198
lclavicle -6.62947e-014 1.90833e-014
lhumerus -10.3887 18.0591 37.1557
lradius 84.5147
lwrist -11.0131
lhand -39.4369 22.3094
lfingers 7.12502
lthumb -12.4249 51.9201
rfemur -13.8701 16.5173 8.93136
rtibia 28.1602
rfoot -16.9064 -24.4148
rtoes -0.33114
lfemur -6.48762 -6.97741 -18.3196
ltibia 23.8613
lfoot -14.5849 13.6765
ltoes -17.0016
951
root 6.51493 18.6689 -0.378115 -92.9795 -88.2473 94.3541
lowerback 6.14202 4.8315 -6.18642
upperback 3.50632 5.96945 -1.66389
thorax -0.251022 2.86701 1.33152
lowerneck 0.837883 -21.5115 -13.4549
upperneck 8.1068 -31.6287 19.5914
head 7.66168 -15.3473 4.79801
rclavicle -3.27001e-014 -1.63003e-014
rhumerus 50.9675 74.0195 -52.9719
rradius 49.016
rwrist 22.8469
rhand -15.7801 7.09505
rfingers 7.12502
rthumb 10.4123 -22.6271
lclavicle -3.27001e-014 -1.63003e-014
lhumerus -11.4052 17.1037 37.2152
lradius 85.0254
lwrist -10.9054
lhand -39.7153 22.5132
lfingers 7.12502
lthumb -12.6933 52.1075
rfemur -13.865 16.4556 9.0176
rtibia 28.1261
rfoot -16.784 -24.5881
rtoes -0.994934
lfemur -6.7131 -7.02558 -18.1851
ltibia 24.0296
lfoot -14.619 13.4861
ltoes -16.9681
952
root 6.51674 18.6701 -0.386468 -84.6601 -88.2988 86.1496
lowerback 6.22837 4.82385 -6.20686
upperback 3.48735 5.95147 -1.61418
thorax -0.324393 2.86003 1.38641
lowerneck 0.908923 -21.4222 -13.715
upperneck 8.11246 -31.5537 19.8201
head 7.72364 -15.3127 4.90374
rclavicle -4.1546e-014 2.8625e-014
rhumerus 47.9692 75.1521 -54.2581
rradius 48.873
rwrist 23.8351
rhand -15.5904 7.40352
rfingers 7.12502
rthumb 10.5953 -22.3094
lclavicle -4.1546e-014 2.8625e-014
lhumerus -12.3052 16.0588 37.3096
lradius 85.5128
lwrist -10.1679
lhand -39.6108 22.668
lfingers 7.12502
lthumb -12.5926 52.2685
rfemur -13.9128 16.3962 9.07336
rtibia 28.0836
rfoot -16.6573 -24.769
rtoes -1.86748
lfemur -7.00012 -7.03502 -18.0725
ltibia 24.2077
lfoot -14.575 13.3544
ltoes -17.2527
953
root 6.51705 18.6721 -0.395569 -72.8315 -88.4302 74.489
lowerback 6.24715 4.73332 -6.23615
upperback 3.42833 5.8322 -1.45093
thorax -0.407323 2.80461 1.57452
lowerneck 0.973054 -21.3561 -13.7788
upperneck 8.04169 -31.4455 19.8237
head 7.68251 -15.2693 4.94305
rclavicle 1.03269e-013 -4.01545e-014
rhumerus 44.9192 76.3878 -55.556
rradius 48.7436
rwrist 24.1541
rhand -15.6832 7.83039
rfingers 7.12502
rthumb 10.5058 -21.8871
lclavicle 1.03269e-013 -4.01545e-014
lhumerus -13.2977 15.0241 37.3657
lradius 86.0105
lwrist -9.0246
lhand -38.8527 22.3863
lfingers 7.12502
lthumb -11.8616 52.0303
rfemur -13.9851 16.3592 9.27576
rtibia 28.0237
rfoot -16.6771 -24.9732
rtoes -2.11497
lfemur -7.35458 -7.07609 -17.7929
ltibia 24.4019
lfoot -14.547 13.2108
ltoes -17.4221
